<svg width="22" height="21" viewBox="0 0 22 21" fill="none" xmlns="http://www.w3.org/2000/svg">
<path d="M21 7.2069L0.999999 7.2069M0.999999 7.2069L0.999999 11.5C0.999998 12.6046 1.89543 13.5 3 13.5L19 13.5C20.1046 13.5 21 12.6046 21 11.5L21 3C21 1.89543 20.1046 1 19 1L3 0.999999C1.89543 0.999999 0.999999 1.89543 0.999999 3L0.999999 7.2069Z" stroke="#0021CC"/>
<path fill-rule="evenodd" clip-rule="evenodd" d="M16.5557 15.2857L11.7938 15.2857L11.7938 11L10.2065 11L10.2065 15.2857L5.44455 15.2857L5.44455 16.7143L10.2065 16.7143L10.2065 21L11.7938 21L11.7938 16.7143L16.5557 16.7143L16.5557 15.2857Z" fill="white"/>
</svg>
