<svg width="30" height="30" viewBox="0 0 30 30" fill="none" xmlns="http://www.w3.org/2000/svg">
<path d="M11.2069 5L11.2069 25M11.2069 25L15.5 25C16.6046 25 17.5 24.1046 17.5 23L17.5 7C17.5 5.89543 16.6046 5 15.5 5L7 5C5.89543 5 5 5.89543 5 7L5 23C5 24.1046 5.89543 25 7 25L11.2069 25Z" stroke="#0021CC" stroke-miterlimit="16"/>
<path fill-rule="evenodd" clip-rule="evenodd" d="M19.2857 9.44434L19.2857 14.2062L15 14.2062L15 15.7935L19.2857 15.7935L19.2857 20.5554L20.7143 20.5554L20.7143 15.7935L25 15.7935L25 14.2062L20.7143 14.2062L20.7143 9.44434L19.2857 9.44434Z" fill="white"/>
</svg>
