<svg width="31" height="30" viewBox="0 0 31 30"  xmlns="http://www.w3.org/2000/svg">
<path class="card__icon" d="M30.2885 21.0938V1.40625C30.2885 0.626953 29.5651 0 28.6659 0H6.49038C2.90715 0 0 2.51953 0 5.625V24.375C0 27.4805 2.90715 30 6.49038 30H28.6659C29.5651 30 30.2885 29.373 30.2885 28.5938V27.6562C30.2885 27.2168 30.0518 26.8184 29.6867 26.5605C29.4028 25.6582 29.4028 23.0859 29.6867 22.1836C30.0518 21.9316 30.2885 21.5332 30.2885 21.0938ZM8.65385 7.85156C8.65385 7.6582 8.83639 7.5 9.05949 7.5H23.3924C23.6155 7.5 23.7981 7.6582 23.7981 7.85156V9.02344C23.7981 9.2168 23.6155 9.375 23.3924 9.375H9.05949C8.83639 9.375 8.65385 9.2168 8.65385 9.02344V7.85156ZM8.65385 11.6016C8.65385 11.4082 8.83639 11.25 9.05949 11.25H23.3924C23.6155 11.25 23.7981 11.4082 23.7981 11.6016V12.7734C23.7981 12.9668 23.6155 13.125 23.3924 13.125H9.05949C8.83639 13.125 8.65385 12.9668 8.65385 12.7734V11.6016ZM25.7858 26.25H6.49038C5.29372 26.25 4.32692 25.4121 4.32692 24.375C4.32692 23.3438 5.30048 22.5 6.49038 22.5H25.7858C25.6573 23.502 25.6573 25.248 25.7858 26.25Z" fill="#0021CC"/>
</svg>
