<svg width="22" height="21" viewBox="0 0 22 21" fill="none" xmlns="http://www.w3.org/2000/svg">
<rect x="1" y="8" width="20" height="6" fill="white"/>
<path d="M21 14.2069L1.00002 14.2069M21 14.2069L21 18.5C21 19.6046 20.1046 20.5 19 20.5L3.00002 20.5C1.89545 20.5 1.00002 19.6046 1.00002 18.5L1.00002 14.2069M21 14.2069L21 7.60345M1.00002 14.2069L1.00002 7.60345M21 7.60345L21 3C21 1.89543 20.1046 1 19 1L3.00002 1C1.89545 1 1.00002 1.89543 1.00002 3L1.00002 7.60345M21 7.60345L1.00002 7.60345" stroke="#0021CC"/>
<line x1="7.05566" y1="1" x2="7.05566" y2="8" stroke="#0021CC"/>
<line x1="14.8333" y1="1" x2="14.8333" y2="8" stroke="#0021CC"/>
<line x1="7.05566" y1="14" x2="7.05566" y2="21" stroke="#0021CC"/>
<line x1="14.8333" y1="14" x2="14.8333" y2="21" stroke="#0021CC"/>
</svg>
