<svg width="30" height="30" viewBox="0 0 30 30" xmlns="http://www.w3.org/2000/svg">
<path class="card__icon" d="M29.6168 18.6048L26.9253 17.1169C27.197 15.7137 27.197 14.2742 26.9253 12.871L29.6168 11.3831C29.9264 11.2137 30.0654 10.8629 29.9643 10.5363C29.263 8.38309 28.0689 6.43552 26.5083 4.81455C26.2682 4.56657 25.8765 4.50609 25.5732 4.67544L22.8816 6.16334C21.7507 5.23189 20.4492 4.51214 19.0402 4.04036V1.07062C19.0402 0.731909 18.7938 0.435539 18.4463 0.362959C16.1275 -0.133007 13.7519 -0.108814 11.5468 0.362959C11.1993 0.435539 10.9529 0.731909 10.9529 1.07062V4.04641C9.5503 4.52423 8.24876 5.24399 7.11149 6.16939L4.42627 4.68149C4.11668 4.51214 3.73127 4.56657 3.49118 4.8206C1.93059 6.43552 0.736454 8.38309 0.0351366 10.5424C-0.0722723 10.869 0.0730456 11.2198 0.382636 11.3891L3.07418 12.877C2.8025 14.2802 2.8025 15.7198 3.07418 17.123L0.382636 18.6109C0.0730456 18.7802 -0.0659542 19.131 0.0351366 19.4576C0.736454 21.6109 1.93059 23.5584 3.49118 25.1794C3.73127 25.4274 4.12299 25.4879 4.42627 25.3185L7.11781 23.8306C8.24876 24.7621 9.5503 25.4818 10.9593 25.9536V28.9294C10.9593 29.2681 11.2057 29.5645 11.5532 29.637C13.8719 30.133 16.2476 30.1088 18.4526 29.637C18.8001 29.5645 19.0465 29.2681 19.0465 28.9294V25.9536C20.4492 25.4758 21.7507 24.756 22.888 23.8306L25.5795 25.3185C25.8891 25.4879 26.2745 25.4334 26.5146 25.1794C28.0752 23.5645 29.2693 21.6169 29.9706 19.4576C30.0654 19.125 29.9264 18.7742 29.6168 18.6048ZM14.9966 19.8326C12.2103 19.8326 9.94203 17.6613 9.94203 14.994C9.94203 12.3266 12.2103 10.1553 14.9966 10.1553C17.7829 10.1553 20.0511 12.3266 20.0511 14.994C20.0511 17.6613 17.7829 19.8326 14.9966 19.8326Z" fill="#0021CC"/>
</svg>
